G04 EAGLE Gerber RS-274X export*
G75*
%MOMM*%
%FSLAX34Y34*%
%LPD*%
%INTop Copper*%
%IPPOS*%
%AMOC8*
5,1,8,0,0,1.08239X$1,22.5*%
G01*
%ADD10C,1.320800*%
%ADD11P,1.814519X8X22.500000*%
%ADD12P,1.814519X8X202.500000*%
%ADD13C,1.400000*%
%ADD14P,1.814519X8X112.500000*%
%ADD15C,1.524000*%
%ADD16C,1.676400*%
%ADD17R,1.508000X1.508000*%
%ADD18C,1.508000*%
%ADD19P,1.732040X8X22.500000*%
%ADD20P,2.336880X8X22.500000*%
%ADD21C,0.304800*%
%ADD22C,0.914400*%


D10*
X1054251Y1031130D02*
X1061387Y1020016D01*
X1040012Y1006294D02*
X1032877Y1017408D01*
X926005Y948798D02*
X933141Y937683D01*
X911766Y923961D02*
X904631Y935076D01*
X1011503Y1003686D02*
X1018638Y992571D01*
X997264Y978849D02*
X990128Y989964D01*
X947380Y962520D02*
X954515Y951405D01*
X975889Y965127D02*
X968754Y976242D01*
X945797Y870952D02*
X952933Y859838D01*
X974307Y873560D02*
X967172Y884674D01*
X988546Y898397D02*
X995681Y887282D01*
X1017056Y901004D02*
X1009920Y912119D01*
X1031295Y925841D02*
X1038430Y914726D01*
X1059804Y928448D02*
X1052669Y939563D01*
X1074043Y953285D02*
X1081179Y942170D01*
X1102553Y955892D02*
X1095418Y967007D01*
D11*
X415520Y81900D03*
X440920Y81900D03*
X495080Y1710540D03*
X520480Y1710540D03*
X836720Y84240D03*
X862120Y84240D03*
X375740Y535860D03*
X401140Y535860D03*
X233000Y460980D03*
X258400Y460980D03*
X967760Y152100D03*
X993160Y152100D03*
X754820Y56160D03*
X780220Y56160D03*
X904580Y117000D03*
X929980Y117000D03*
X223640Y203580D03*
X249040Y203580D03*
X286820Y163800D03*
X312220Y163800D03*
X1028600Y203580D03*
X1054000Y203580D03*
X860120Y535860D03*
X885520Y535860D03*
X1044980Y460980D03*
X1070380Y460980D03*
X347660Y117000D03*
X373060Y117000D03*
D12*
X770860Y1708200D03*
X745460Y1708200D03*
D11*
X478700Y58500D03*
X504100Y58500D03*
D13*
X619480Y748800D03*
X653480Y748800D03*
D14*
X633494Y630378D03*
X633494Y681178D03*
D11*
X786974Y1446548D03*
X837774Y1446548D03*
X434398Y1442590D03*
X485198Y1442590D03*
D15*
X744872Y1168794D02*
X760112Y1168794D01*
X760112Y1123582D02*
X744872Y1123582D01*
X809896Y1168794D02*
X825136Y1168794D01*
X825136Y1123582D02*
X809896Y1123582D01*
X536490Y1130114D02*
X521250Y1130114D01*
X521250Y1175326D02*
X536490Y1175326D01*
X471466Y1130114D02*
X456226Y1130114D01*
X456226Y1175326D02*
X471466Y1175326D01*
D16*
X482577Y495137D02*
X499340Y495020D01*
X499163Y469621D02*
X482400Y469738D01*
X482222Y444339D02*
X498986Y444222D01*
X498808Y418822D02*
X482045Y418939D01*
X481868Y393540D02*
X498631Y393423D01*
X498454Y368024D02*
X481690Y368141D01*
X481513Y342741D02*
X498277Y342624D01*
X498099Y317225D02*
X481336Y317342D01*
X481158Y291942D02*
X497922Y291825D01*
X497745Y266426D02*
X480981Y266543D01*
X480804Y241144D02*
X497567Y241027D01*
X497390Y215627D02*
X480626Y215744D01*
X480449Y190345D02*
X497213Y190228D01*
X497035Y164828D02*
X480272Y164945D01*
X480094Y139546D02*
X496858Y139429D01*
X759488Y137596D02*
X776251Y137479D01*
X776428Y162878D02*
X759665Y162995D01*
X759842Y188394D02*
X776606Y188277D01*
X776783Y213677D02*
X760020Y213794D01*
X760197Y239193D02*
X776960Y239076D01*
X777138Y264475D02*
X760374Y264592D01*
X760551Y289992D02*
X777315Y289875D01*
X777492Y315274D02*
X760729Y315391D01*
X760906Y340791D02*
X777670Y340674D01*
X777847Y366073D02*
X761083Y366190D01*
X761261Y391589D02*
X778024Y391472D01*
X778202Y416872D02*
X761438Y416989D01*
X761615Y442388D02*
X778379Y442271D01*
X778556Y467671D02*
X761793Y467788D01*
X761970Y493187D02*
X778734Y493070D01*
D17*
X677004Y908008D03*
D18*
X651604Y908008D03*
X626204Y908008D03*
X600804Y908008D03*
D19*
X666900Y1310400D03*
X606060Y1310400D03*
X538200Y767520D03*
X737100Y767520D03*
D16*
X1150620Y1145238D02*
X1150620Y1162002D01*
X1188720Y1162002D02*
X1188720Y1145238D01*
X1226820Y1145238D02*
X1226820Y1162002D01*
D19*
X1118520Y966420D03*
X889200Y924300D03*
D20*
X308220Y1041300D03*
X384420Y1041300D03*
D21*
X908050Y927608D02*
X908050Y913638D01*
X718058Y723646D01*
X908050Y927608D02*
X908199Y929518D01*
D22*
X718058Y723646D03*
D21*
X628650Y790702D02*
X628650Y905256D01*
X628650Y790702D02*
X748792Y670560D01*
X748792Y486156D01*
X768350Y466598D01*
X628650Y905256D02*
X626204Y908008D01*
X770175Y467729D02*
X768350Y466598D01*
X824230Y64262D02*
X863346Y64262D01*
X824230Y64262D02*
X785222Y64262D01*
X863346Y64262D02*
X902462Y103378D01*
X916432Y103378D01*
X927608Y114554D01*
X785222Y64262D02*
X780220Y56160D01*
X927608Y114554D02*
X929980Y117000D01*
X991870Y941578D02*
X991870Y983488D01*
X991870Y941578D02*
X899668Y849376D01*
X899668Y561594D02*
X899668Y550418D01*
X899668Y561594D02*
X899668Y849376D01*
X899668Y550418D02*
X885698Y536448D01*
X991870Y983488D02*
X993696Y984407D01*
X885698Y536448D02*
X885520Y535860D01*
X894080Y561594D02*
X899668Y561594D01*
X824230Y259842D02*
X824230Y64262D01*
X824230Y259842D02*
X1039368Y474980D01*
X1056132Y474980D01*
X1070102Y461010D01*
X1070380Y460980D01*
D22*
X894080Y561594D03*
D21*
X371602Y346456D02*
X259842Y458216D01*
X258400Y460980D01*
X371602Y229108D02*
X522478Y78232D01*
X371602Y229108D02*
X371602Y346456D01*
X899668Y248666D02*
X899668Y162052D01*
X908050Y153670D01*
D22*
X371602Y346456D03*
X522478Y78232D03*
X899668Y248666D03*
X908050Y153670D03*
D21*
X503828Y58674D02*
X502920Y58674D01*
X480568Y81026D01*
X441452Y81026D01*
X503828Y58674D02*
X504100Y58500D01*
X441452Y81026D02*
X440920Y81900D01*
X321310Y201168D02*
X251460Y201168D01*
X321310Y201168D02*
X438658Y83820D01*
X251460Y201168D02*
X249040Y203580D01*
X438658Y83820D02*
X440920Y81900D01*
X863346Y86614D02*
X863346Y94996D01*
X986282Y217932D01*
X1039368Y217932D01*
X1053338Y203962D01*
X863346Y86614D02*
X862120Y84240D01*
X1053338Y203962D02*
X1054000Y203580D01*
X927608Y919226D02*
X927608Y941578D01*
X927608Y919226D02*
X740410Y732028D01*
X927608Y941578D02*
X929573Y943240D01*
D22*
X740410Y732028D03*
D21*
X231902Y201168D02*
X226314Y201168D01*
X231902Y201168D02*
X268224Y164846D01*
X284988Y164846D01*
X226314Y201168D02*
X223640Y203580D01*
X284988Y164846D02*
X286820Y163800D01*
X231902Y201168D02*
X231902Y458216D01*
X233000Y460980D01*
X223640Y203580D02*
X231902Y201168D01*
X1017016Y922020D02*
X1017016Y997458D01*
X1017016Y922020D02*
X1028192Y910844D01*
X1028192Y905256D01*
X1030986Y902462D01*
X1030986Y474980D01*
X790702Y234696D01*
X790702Y92202D01*
X1017016Y997458D02*
X1015070Y998129D01*
X760810Y57123D02*
X754820Y56160D01*
X760810Y57123D02*
X790702Y92202D01*
X938784Y150876D02*
X966724Y150876D01*
X938784Y150876D02*
X905256Y117348D01*
X966724Y150876D02*
X967760Y152100D01*
X905256Y117348D02*
X904580Y117000D01*
X1036574Y938784D02*
X1036574Y1011428D01*
X1036574Y938784D02*
X1044956Y930402D01*
X1044956Y924814D01*
X1072896Y896874D01*
X1072896Y500126D01*
X1036574Y1011428D02*
X1036445Y1011851D01*
X975106Y153670D02*
X969518Y153670D01*
X975106Y153670D02*
X1022604Y201168D01*
X1028192Y201168D01*
X969518Y153670D02*
X967760Y152100D01*
X1028192Y201168D02*
X1028600Y203580D01*
D22*
X1072896Y500126D03*
D21*
X357632Y114554D02*
X349250Y114554D01*
X357632Y114554D02*
X405130Y67056D01*
X474980Y67056D01*
X478142Y63894D01*
X349250Y114554D02*
X347660Y117000D01*
X478142Y63894D02*
X478700Y58500D01*
X1058926Y949960D02*
X1058926Y1025398D01*
X1058926Y949960D02*
X1070102Y938784D01*
X1070102Y933196D01*
X1084072Y919226D01*
X1084072Y455422D01*
X1075690Y447040D01*
X1058926Y447040D01*
X1047750Y458216D01*
X1058926Y1025398D02*
X1057819Y1025573D01*
X1044980Y460980D02*
X1047750Y458216D01*
X838200Y226314D02*
X838200Y86614D01*
X838200Y226314D02*
X1058926Y447040D01*
X838200Y86614D02*
X836720Y84240D01*
X888492Y569976D02*
X888492Y706882D01*
X888492Y569976D02*
X860552Y542036D01*
X860552Y536448D01*
X860120Y535860D01*
X377190Y536448D02*
X377190Y701294D01*
X597916Y922020D01*
X628650Y922020D01*
X639826Y910844D01*
X639826Y787908D01*
X720852Y706882D01*
X888492Y706882D01*
X377190Y536448D02*
X375740Y535860D01*
X497332Y1525524D02*
X497332Y1708223D01*
X497332Y1525524D02*
X421894Y1450086D01*
X421894Y1098042D01*
X597916Y922020D01*
X497332Y1708223D02*
X495080Y1710540D01*
D22*
X888492Y706882D03*
D21*
X704088Y1173480D02*
X530860Y1173480D01*
X704088Y1173480D02*
X751586Y1125982D01*
X530860Y1173480D02*
X528870Y1175326D01*
X751586Y1125982D02*
X752492Y1123582D01*
X1061720Y1039368D02*
X1118520Y982568D01*
X1061720Y1039368D02*
X1061720Y1042162D01*
X1058926Y1044956D01*
X955548Y1044956D01*
X938784Y1028192D01*
X1118520Y982568D02*
X1118520Y966420D01*
D22*
X938784Y1028192D03*
D21*
X754380Y1170686D02*
X754380Y1279652D01*
X835406Y1360678D01*
X835406Y1444498D01*
X754380Y1170686D02*
X752492Y1168794D01*
X835406Y1444498D02*
X837774Y1446548D01*
X528066Y1151128D02*
X528066Y1131570D01*
X528066Y1151128D02*
X486156Y1193038D01*
X486156Y1441704D01*
X528066Y1131570D02*
X528870Y1130114D01*
X486156Y1441704D02*
X485198Y1442590D01*
X651002Y748269D02*
X651002Y698500D01*
X634238Y681736D01*
X651002Y748269D02*
X653480Y748800D01*
X634238Y681736D02*
X633494Y681178D01*
X491744Y539242D02*
X491744Y497332D01*
X491744Y539242D02*
X631444Y678942D01*
X491744Y497332D02*
X490959Y495079D01*
X631444Y678942D02*
X633494Y681178D01*
X667766Y1310386D02*
X687324Y1310386D01*
X718058Y1279652D01*
X732028Y1279652D02*
X745998Y1279652D01*
X732028Y1279652D02*
X718058Y1279652D01*
X745998Y1279652D02*
X785114Y1318768D01*
X785114Y1444498D01*
X667766Y1310386D02*
X666900Y1310400D01*
X785114Y1444498D02*
X786974Y1446548D01*
X469392Y1444498D02*
X435864Y1444498D01*
X469392Y1444498D02*
X480568Y1455674D01*
X491744Y1455674D01*
X511302Y1436116D01*
X511302Y1293622D01*
X525272Y1279652D01*
X634238Y1279652D01*
X664972Y1310386D01*
X435864Y1444498D02*
X434398Y1442590D01*
X664972Y1310386D02*
X666900Y1310400D01*
X1033780Y933196D02*
X1033780Y925000D01*
X1033780Y922020D01*
X1033780Y933196D02*
X1030986Y935990D01*
X1030986Y1000252D01*
X1019810Y1011428D01*
X1019810Y1014222D01*
X1017016Y1017016D01*
X882904Y1017016D02*
X787908Y1017016D01*
X882904Y1017016D02*
X1017016Y1017016D01*
X787908Y1017016D02*
X678942Y908050D01*
X677004Y908008D01*
X477774Y176022D02*
X486156Y167640D01*
X477774Y176022D02*
X474980Y176022D01*
X466598Y184404D01*
X466598Y597916D01*
X616752Y748070D01*
X486156Y167640D02*
X488653Y164887D01*
X616752Y748070D02*
X619480Y748800D01*
X678942Y824230D02*
X678942Y905256D01*
X678942Y824230D02*
X734822Y768350D01*
X678942Y905256D02*
X677004Y908008D01*
X734822Y768350D02*
X737100Y767520D01*
X732028Y1165098D02*
X732028Y1279652D01*
X732028Y1165098D02*
X759968Y1137158D01*
X765556Y1137158D01*
X782320Y1120394D01*
X782320Y1022604D01*
X787908Y1017016D01*
X882904Y1017016D02*
X882904Y937275D01*
X889200Y924300D01*
X1034862Y920283D02*
X1035000Y925000D01*
X1033780Y925000D01*
X539242Y804672D02*
X539242Y768350D01*
X539242Y804672D02*
X617474Y882904D01*
X793496Y1067308D02*
X1103630Y1067308D01*
X1187450Y1151128D01*
X539242Y768350D02*
X538200Y767520D01*
X1187450Y1151128D02*
X1188720Y1153620D01*
D22*
X617474Y882904D03*
X793496Y1067308D03*
D21*
X745998Y184404D02*
X765556Y164846D01*
X745998Y265430D02*
X745998Y318516D01*
X745998Y265430D02*
X745998Y184404D01*
X745998Y318516D02*
X768350Y340868D01*
X765556Y164846D02*
X768047Y162936D01*
X769288Y340732D02*
X768350Y340868D01*
X745998Y265430D02*
X491744Y265430D01*
X489363Y266485D01*
X958342Y899668D02*
X963930Y899668D01*
X958342Y899668D02*
X905256Y846582D01*
X905256Y525272D01*
X771144Y391160D01*
X769643Y391531D01*
D22*
X963930Y899668D03*
D21*
X1000000Y835000D02*
X1000000Y490000D01*
X770000Y260000D01*
X768756Y264534D01*
D22*
X1000000Y835000D03*
D21*
X1010000Y905000D02*
X1010000Y475000D01*
X770000Y235000D01*
X1010000Y905000D02*
X1013488Y906561D01*
X768579Y239135D02*
X770000Y235000D01*
X795000Y470000D02*
X775000Y490000D01*
X795000Y470000D02*
X795000Y465000D01*
X785000Y455000D01*
X515000Y455000D01*
X515000Y545000D01*
X400000Y520000D02*
X360000Y520000D01*
X360000Y1020000D01*
X380000Y1040000D01*
X770352Y493128D02*
X775000Y490000D01*
X384420Y1041300D02*
X380000Y1040000D01*
D22*
X515000Y545000D03*
X400000Y520000D03*
D21*
X990000Y535000D02*
X990000Y890000D01*
X990000Y535000D02*
X770000Y315000D01*
X990000Y890000D02*
X992114Y892839D01*
X770000Y315000D02*
X769111Y315333D01*
M02*
