G04 EAGLE Gerber RS-274X export*
G75*
%MOMM*%
%FSLAX34Y34*%
%LPD*%
%IN*%
%IPPOS*%
%AMOC8*
5,1,8,0,0,1.08239X$1,22.5*%
G01*
%ADD10C,0.254000*%


D10*
X722Y569256D02*
X1040Y565635D01*
X1921Y560942D01*
X2141Y560157D01*
X5712Y535014D01*
X14420Y497417D01*
X28680Y452580D01*
X56565Y387541D01*
X100495Y308486D01*
X145086Y246602D01*
X178059Y210352D01*
X179673Y208737D01*
X186522Y201766D01*
X190435Y197560D01*
X190582Y197339D01*
X190607Y197217D01*
X189677Y195970D01*
X186619Y193401D01*
X185617Y192594D01*
X184932Y191591D01*
X182706Y185819D01*
X182877Y185525D01*
X182999Y185305D01*
X183660Y184571D01*
X185812Y182541D01*
X190142Y178725D01*
X195621Y173931D01*
X197455Y172341D01*
X200146Y170017D01*
X208291Y163071D01*
X220766Y152504D01*
X231137Y143845D01*
X234488Y140225D01*
X235613Y140225D01*
X241239Y136776D01*
X241239Y136556D01*
X241655Y135895D01*
X244468Y133719D01*
X251830Y128680D01*
X262471Y121586D01*
X266042Y119213D01*
X269369Y116988D01*
X279446Y110310D01*
X289108Y103950D01*
X295174Y100037D01*
X297449Y98643D01*
X297742Y98520D01*
X305692Y93530D01*
X305667Y93334D01*
X305716Y92723D01*
X307771Y91255D01*
X314546Y87660D01*
X325187Y82181D01*
X328733Y80346D01*
X332794Y78243D01*
X345097Y71981D01*
X356006Y66673D01*
X362611Y63885D01*
X365179Y63053D01*
X366060Y63053D01*
X374816Y57599D01*
X380711Y55104D01*
X383450Y53954D01*
X392281Y50358D01*
X407739Y44170D01*
X422905Y38250D01*
X431221Y35046D01*
X433569Y34190D01*
X434083Y34019D01*
X437728Y32967D01*
X437801Y32991D01*
X447732Y31206D01*
X450347Y30178D01*
X461673Y26681D01*
X482416Y20761D01*
X502082Y15649D01*
X510080Y13448D01*
X512745Y13448D01*
X523119Y11980D01*
X523191Y11980D01*
X529476Y11075D01*
X541144Y9461D01*
X543908Y9069D01*
X550634Y8140D01*
X570887Y5327D01*
X584367Y3517D01*
X589137Y3003D01*
X589822Y3077D01*
X589994Y3174D01*
X598920Y728D01*
X614772Y1071D01*
X615845Y1095D01*
X625169Y1169D01*
X636887Y1242D01*
X643433Y1242D01*
X656278Y1364D01*
X666900Y1731D01*
X672842Y2514D01*
X675213Y3321D01*
X675844Y3786D01*
X675872Y3762D01*
X678640Y3835D01*
X685046Y4104D01*
X692458Y4495D01*
X696859Y4789D01*
X698225Y4887D01*
X701430Y5156D01*
X721268Y7406D01*
X738319Y9828D01*
X740154Y10195D01*
X755708Y14084D01*
X756465Y14084D01*
X758747Y14769D01*
X766105Y16530D01*
X776352Y19049D01*
X787993Y21935D01*
X799616Y24822D01*
X809769Y27390D01*
X816956Y29249D01*
X819675Y29934D01*
X819774Y30007D01*
X828989Y30497D01*
X832492Y31768D01*
X835328Y32771D01*
X845333Y36367D01*
X862992Y42776D01*
X879723Y48890D01*
X888163Y52046D01*
X889773Y52657D01*
X890463Y52951D01*
X893249Y54247D01*
X893249Y54664D01*
X899047Y58968D01*
X899096Y58870D01*
X905039Y60900D01*
X914358Y64692D01*
X916116Y65474D01*
X918785Y66697D01*
X926738Y70660D01*
X938843Y77093D01*
X950002Y83404D01*
X955967Y87024D01*
X957702Y88223D01*
X969443Y95805D01*
X970128Y95805D01*
X972256Y97322D01*
X977684Y100869D01*
X979203Y101895D01*
X980425Y102752D01*
X990894Y109919D01*
X1004027Y118847D01*
X1006575Y120559D01*
X1009117Y122296D01*
X1019708Y129536D01*
X1025262Y133352D01*
X1025312Y133376D01*
X1034653Y137950D01*
X1042016Y144701D01*
X1043945Y146486D01*
X1057160Y158448D01*
X1073174Y172732D01*
X1076533Y175692D01*
X1078165Y177160D01*
X1083012Y181636D01*
X1084378Y183348D01*
X1084360Y183470D01*
X1084283Y183715D01*
X1082326Y187360D01*
X1079436Y192227D01*
X1078900Y193059D01*
X1077142Y195823D01*
X1086997Y205779D01*
X1099720Y219109D01*
X1119801Y242224D01*
X1143674Y270597D01*
X1167203Y303815D01*
X1204286Y369661D01*
X1220133Y402022D01*
X1230949Y433625D01*
X1239583Y450966D01*
X1253302Y503044D01*
X1263185Y533742D01*
X1266197Y557123D01*
X1267319Y566127D01*
X1267004Y567321D01*
X1266927Y567398D01*
X1260178Y570261D01*
X1247437Y575324D01*
X1244375Y576496D01*
X1238749Y578674D01*
X1221968Y585301D01*
X1203673Y592664D01*
X1190147Y598317D01*
X1183786Y601126D01*
X1182099Y601983D01*
X1181585Y602231D01*
X1179895Y603597D01*
X1180242Y603795D01*
X1183154Y604652D01*
X1191635Y606825D01*
X1206486Y610400D01*
X1223217Y614363D01*
X1228821Y615657D01*
X1245845Y619643D01*
X1245845Y771543D01*
X1219570Y776827D01*
X1214827Y777778D01*
X1200593Y780713D01*
X1188605Y783306D01*
X1182271Y784974D01*
X1180368Y785704D01*
X1180292Y785948D01*
X1180264Y786051D01*
X1181757Y786732D01*
X1189169Y789469D01*
X1206752Y795609D01*
X1230728Y803928D01*
X1238726Y806687D01*
X1241125Y807548D01*
X1248338Y810064D01*
X1253672Y812047D01*
X1256088Y813125D01*
X1256828Y813639D01*
X1257022Y813860D01*
X1250759Y849572D01*
X1204209Y969105D01*
X1204209Y969133D01*
X1206463Y971062D01*
X1212577Y976269D01*
X1221580Y983956D01*
X1229822Y990972D01*
X1232563Y993298D01*
X1235913Y994718D01*
X1245989Y998925D01*
X1257243Y1003650D01*
X1265146Y1006972D01*
X1268275Y1008271D01*
X1268518Y1008361D01*
X1270060Y1009321D01*
X1269866Y1023090D01*
X1269839Y1025002D01*
X1269718Y1034123D01*
X1269519Y1053888D01*
X1269276Y1079640D01*
X1269059Y1101313D01*
X1269010Y1108531D01*
X1268320Y1180175D01*
X1258658Y1210161D01*
X1256562Y1216694D01*
X1250245Y1236288D01*
X1244326Y1254904D01*
X1240164Y1268429D01*
X1237725Y1276567D01*
X1236968Y1279286D01*
X1236301Y1281558D01*
X1234493Y1288434D01*
X1234006Y1291860D01*
X1234006Y1295773D01*
X1133570Y1295773D01*
X1133354Y1293258D01*
X1133304Y1292910D01*
X1132840Y1288925D01*
X1132813Y1288627D01*
X1132547Y1286995D01*
X1130491Y1279507D01*
X1125130Y1262410D01*
X1116965Y1237875D01*
X1108845Y1214296D01*
X1106100Y1206442D01*
X1096465Y1178877D01*
X1096835Y1167525D01*
X1096902Y1164621D01*
X1097222Y1155811D01*
X1097786Y1141452D01*
X1098273Y1128706D01*
X1098543Y1122692D01*
X1098593Y1121885D01*
X1098593Y1121637D01*
X1098494Y1120100D01*
X1098372Y1120149D01*
X1094729Y1124229D01*
X1089517Y1130451D01*
X1088638Y1131547D01*
X1087340Y1133161D01*
X1083526Y1138025D01*
X1077408Y1145929D01*
X1071813Y1153269D01*
X1068923Y1157105D01*
X1068260Y1158039D01*
X1067922Y1158503D01*
X1063201Y1165843D01*
X1062782Y1166551D01*
X1061366Y1168922D01*
X1057327Y1176118D01*
X1049843Y1190495D01*
X1038423Y1213732D01*
X1025361Y1240788D01*
X1021051Y1249787D01*
X1018486Y1255120D01*
X1003468Y1286549D01*
X985173Y1325029D01*
X980966Y1333857D01*
X978180Y1339682D01*
X969857Y1357170D01*
X957238Y1383658D01*
X944641Y1410100D01*
X936350Y1427467D01*
X933609Y1433238D01*
X931233Y1438228D01*
X924096Y1453201D01*
X915629Y1470933D01*
X909150Y1484553D01*
X906188Y1490816D01*
X905580Y1492087D01*
X904939Y1493385D01*
X899655Y1504467D01*
X893055Y1518263D01*
X891784Y1520928D01*
X890490Y1523624D01*
X886473Y1532032D01*
X878943Y1547835D01*
X870161Y1566252D01*
X863407Y1580440D01*
X861157Y1585138D01*
X858709Y1590273D01*
X833105Y1643915D01*
X830558Y1649271D01*
X827745Y1655119D01*
X814296Y1683220D01*
X802064Y1708806D01*
X799887Y1713355D01*
X798782Y1715632D01*
X792691Y1728251D01*
X787236Y1739477D01*
X786479Y1741019D01*
X780974Y1752272D01*
X771118Y1752272D01*
X762119Y1752985D01*
X755979Y1755135D01*
X754784Y1755866D01*
X753580Y1756605D01*
X749960Y1758684D01*
X746024Y1760149D01*
X740961Y1760762D01*
X734753Y1760906D01*
X732692Y1760933D01*
X721732Y1761078D01*
X721732Y1692445D01*
X714933Y1684519D01*
X708157Y1676566D01*
X708112Y1674460D01*
X708112Y1672486D01*
X708013Y1666539D01*
X707769Y1646553D01*
X707399Y1617473D01*
X707084Y1591157D01*
X706985Y1582370D01*
X706863Y1573515D01*
X706547Y1546955D01*
X706178Y1517014D01*
X705934Y1495712D01*
X705858Y1488570D01*
X705858Y1479910D01*
X714176Y1479910D01*
X720731Y1479612D01*
X724324Y1478764D01*
X724793Y1478494D01*
X725208Y1478250D01*
X727386Y1476339D01*
X730929Y1472155D01*
X732056Y1470784D01*
X735600Y1466334D01*
X735799Y1459752D01*
X735848Y1458115D01*
X735997Y1449653D01*
X736290Y1431159D01*
X736628Y1407115D01*
X736899Y1386985D01*
X736998Y1380258D01*
X737074Y1372968D01*
X737363Y1351079D01*
X737656Y1325638D01*
X737832Y1307635D01*
X737881Y1300791D01*
X737854Y1300764D01*
X737832Y1300737D01*
X733968Y1301301D01*
X733377Y1301395D01*
X732764Y1301522D01*
X726141Y1302599D01*
X725695Y1302649D01*
X724915Y1302743D01*
X722003Y1303677D01*
X721908Y1303871D01*
X721511Y1304601D01*
X721002Y1308929D01*
X720461Y1323167D01*
X720190Y1351643D01*
X720122Y1387521D01*
X720122Y1464355D01*
X548263Y1464355D01*
X548263Y1303208D01*
X547555Y1303064D01*
X546992Y1302937D01*
X541072Y1301986D01*
X536717Y1301278D01*
X533759Y1301278D01*
X533561Y1303965D01*
X533466Y1305115D01*
X533268Y1312261D01*
X532903Y1331021D01*
X532461Y1361277D01*
X532023Y1393369D01*
X531902Y1404058D01*
X531095Y1467407D01*
X533903Y1470297D01*
X535202Y1471618D01*
X544985Y1479860D01*
X545648Y1480176D01*
X548092Y1481379D01*
X554183Y1481496D01*
X560274Y1481600D01*
X560274Y1578776D01*
X560247Y1675908D01*
X554304Y1683734D01*
X548335Y1691538D01*
X547992Y1723116D01*
X547947Y1727467D01*
X547677Y1746497D01*
X547456Y1757800D01*
X547433Y1758291D01*
X547235Y1761907D01*
X539751Y1762110D01*
X537452Y1762178D01*
X529625Y1762277D01*
X525468Y1762110D01*
X525026Y1762006D01*
X524390Y1761885D01*
X521086Y1760491D01*
X516735Y1757606D01*
X515585Y1756722D01*
X514386Y1755848D01*
X510743Y1753300D01*
X506753Y1751488D01*
X501690Y1750807D01*
X495649Y1750654D01*
X484567Y1750654D01*
X470455Y1721696D01*
X468499Y1717737D01*
X457444Y1695015D01*
X447367Y1674343D01*
X445947Y1671381D01*
X442815Y1665001D01*
X425644Y1629560D01*
X406859Y1590692D01*
X402970Y1582573D01*
X399447Y1575282D01*
X363736Y1500964D01*
X360238Y1493651D01*
X356349Y1485581D01*
X337759Y1446691D01*
X320832Y1411105D01*
X317775Y1404649D01*
X314155Y1397039D01*
X293608Y1353744D01*
X271252Y1306783D01*
X266751Y1297338D01*
X262202Y1286626D01*
X240750Y1236094D01*
X222967Y1194314D01*
X220276Y1187975D01*
X218222Y1185509D01*
X211985Y1178169D01*
X209784Y1176118D01*
X209661Y1176136D01*
X119598Y1061611D01*
X77331Y1000440D01*
X60650Y961527D01*
X45093Y929823D01*
X32863Y892033D01*
X9479Y821001D01*
X9430Y820465D01*
X10629Y817773D01*
X10995Y817552D01*
X11534Y817282D01*
X14860Y815911D01*
X22590Y812854D01*
X33230Y808747D01*
X42696Y805172D01*
X45876Y803977D01*
X50034Y802386D01*
X62582Y797521D01*
X74152Y792994D01*
X80951Y790181D01*
X83300Y789131D01*
X83471Y788955D01*
X76426Y786146D01*
X58375Y781471D01*
X53189Y780253D01*
X48713Y779225D01*
X32472Y775312D01*
X23959Y773058D01*
X23348Y772837D01*
X21562Y772228D01*
X21342Y747472D01*
X21220Y735317D01*
X20926Y698798D01*
X20682Y660467D01*
X20584Y635323D01*
X20584Y626275D01*
X20657Y626198D01*
X20682Y626175D01*
X23275Y625364D01*
X23666Y625274D01*
X24889Y624976D01*
X29977Y623529D01*
X39956Y620671D01*
X51110Y617393D01*
X58497Y615170D01*
X60968Y614408D01*
X65174Y613114D01*
X80242Y608146D01*
X86896Y605946D01*
X86896Y604823D01*
X84009Y603646D01*
X75277Y599931D01*
X60601Y594057D01*
X45068Y587970D01*
X39883Y585964D01*
X35040Y584102D01*
X20559Y578453D01*
X8696Y573660D01*
X2655Y570897D01*
X918Y569819D01*
X820Y569499D01*
X722Y569256D01*
X184280Y343260D02*
X184205Y341822D01*
X184054Y340389D01*
X183829Y338967D01*
X183529Y337558D01*
X183157Y336167D01*
X182712Y334797D01*
X182195Y333453D01*
X181610Y332137D01*
X180956Y330854D01*
X180236Y329606D01*
X179451Y328399D01*
X178605Y327233D01*
X177698Y326114D01*
X176735Y325044D01*
X175716Y324025D01*
X174646Y323062D01*
X173527Y322155D01*
X172362Y321309D01*
X171154Y320524D01*
X169906Y319804D01*
X168623Y319150D01*
X167307Y318565D01*
X165963Y318048D01*
X164593Y317603D01*
X163202Y317231D01*
X161793Y316931D01*
X160371Y316706D01*
X158938Y316555D01*
X157500Y316480D01*
X156060Y316480D01*
X154622Y316555D01*
X153189Y316706D01*
X151767Y316931D01*
X150358Y317231D01*
X148967Y317603D01*
X147597Y318048D01*
X146253Y318565D01*
X144937Y319150D01*
X143654Y319804D01*
X142406Y320524D01*
X141199Y321309D01*
X140033Y322155D01*
X138914Y323062D01*
X137844Y324025D01*
X136825Y325044D01*
X135862Y326114D01*
X134955Y327233D01*
X134109Y328399D01*
X133324Y329606D01*
X132604Y330854D01*
X131950Y332137D01*
X131365Y333453D01*
X130848Y334797D01*
X130403Y336167D01*
X130031Y337558D01*
X129731Y338967D01*
X129506Y340389D01*
X129355Y341822D01*
X129280Y343260D01*
X129280Y344700D01*
X129355Y346138D01*
X129506Y347571D01*
X129731Y348993D01*
X130031Y350402D01*
X130403Y351793D01*
X130848Y353163D01*
X131365Y354507D01*
X131950Y355823D01*
X132604Y357106D01*
X133324Y358354D01*
X134109Y359562D01*
X134955Y360727D01*
X135862Y361846D01*
X136825Y362916D01*
X137844Y363935D01*
X138914Y364898D01*
X140033Y365805D01*
X141199Y366651D01*
X142406Y367436D01*
X143654Y368156D01*
X144937Y368810D01*
X146253Y369395D01*
X147597Y369912D01*
X148967Y370357D01*
X150358Y370729D01*
X151767Y371029D01*
X153189Y371254D01*
X154622Y371405D01*
X156060Y371480D01*
X157500Y371480D01*
X158938Y371405D01*
X160371Y371254D01*
X161793Y371029D01*
X163202Y370729D01*
X164593Y370357D01*
X165963Y369912D01*
X167307Y369395D01*
X168623Y368810D01*
X169906Y368156D01*
X171154Y367436D01*
X172362Y366651D01*
X173527Y365805D01*
X174646Y364898D01*
X175716Y363935D01*
X176735Y362916D01*
X177698Y361846D01*
X178605Y360727D01*
X179451Y359562D01*
X180236Y358354D01*
X180956Y357106D01*
X181610Y355823D01*
X182195Y354507D01*
X182712Y353163D01*
X183157Y351793D01*
X183529Y350402D01*
X183829Y348993D01*
X184054Y347571D01*
X184205Y346138D01*
X184280Y344700D01*
X184280Y343260D01*
X224060Y1047600D02*
X223985Y1046162D01*
X223834Y1044729D01*
X223609Y1043307D01*
X223309Y1041898D01*
X222937Y1040507D01*
X222492Y1039137D01*
X221975Y1037793D01*
X221390Y1036477D01*
X220736Y1035194D01*
X220016Y1033946D01*
X219231Y1032739D01*
X218385Y1031573D01*
X217478Y1030454D01*
X216515Y1029384D01*
X215496Y1028365D01*
X214426Y1027402D01*
X213307Y1026495D01*
X212142Y1025649D01*
X210934Y1024864D01*
X209686Y1024144D01*
X208403Y1023490D01*
X207087Y1022905D01*
X205743Y1022388D01*
X204373Y1021943D01*
X202982Y1021571D01*
X201573Y1021271D01*
X200151Y1021046D01*
X198718Y1020895D01*
X197280Y1020820D01*
X195840Y1020820D01*
X194402Y1020895D01*
X192969Y1021046D01*
X191547Y1021271D01*
X190138Y1021571D01*
X188747Y1021943D01*
X187377Y1022388D01*
X186033Y1022905D01*
X184717Y1023490D01*
X183434Y1024144D01*
X182186Y1024864D01*
X180979Y1025649D01*
X179813Y1026495D01*
X178694Y1027402D01*
X177624Y1028365D01*
X176605Y1029384D01*
X175642Y1030454D01*
X174735Y1031573D01*
X173889Y1032739D01*
X173104Y1033946D01*
X172384Y1035194D01*
X171730Y1036477D01*
X171145Y1037793D01*
X170628Y1039137D01*
X170183Y1040507D01*
X169811Y1041898D01*
X169511Y1043307D01*
X169286Y1044729D01*
X169135Y1046162D01*
X169060Y1047600D01*
X169060Y1049040D01*
X169135Y1050478D01*
X169286Y1051911D01*
X169511Y1053333D01*
X169811Y1054742D01*
X170183Y1056133D01*
X170628Y1057503D01*
X171145Y1058847D01*
X171730Y1060163D01*
X172384Y1061446D01*
X173104Y1062694D01*
X173889Y1063902D01*
X174735Y1065067D01*
X175642Y1066186D01*
X176605Y1067256D01*
X177624Y1068275D01*
X178694Y1069238D01*
X179813Y1070145D01*
X180979Y1070991D01*
X182186Y1071776D01*
X183434Y1072496D01*
X184717Y1073150D01*
X186033Y1073735D01*
X187377Y1074252D01*
X188747Y1074697D01*
X190138Y1075069D01*
X191547Y1075369D01*
X192969Y1075594D01*
X194402Y1075745D01*
X195840Y1075820D01*
X197280Y1075820D01*
X198718Y1075745D01*
X200151Y1075594D01*
X201573Y1075369D01*
X202982Y1075069D01*
X204373Y1074697D01*
X205743Y1074252D01*
X207087Y1073735D01*
X208403Y1073150D01*
X209686Y1072496D01*
X210934Y1071776D01*
X212142Y1070991D01*
X213307Y1070145D01*
X214426Y1069238D01*
X215496Y1068275D01*
X216515Y1067256D01*
X217478Y1066186D01*
X218385Y1065067D01*
X219231Y1063902D01*
X220016Y1062694D01*
X220736Y1061446D01*
X221390Y1060163D01*
X221975Y1058847D01*
X222492Y1057503D01*
X222937Y1056133D01*
X223309Y1054742D01*
X223609Y1053333D01*
X223834Y1051911D01*
X223985Y1050478D01*
X224060Y1049040D01*
X224060Y1047600D01*
M02*
