M48
;GenerationSoftware,Autodesk,EAGLE,9.4.2*%
;CreationDate,2019-11-15T11:47:20Z*%
FMAT,2
ICI,OFF
METRIC,TZ,000.000
T7C0.508
T6C0.700
T5C0.813
T4C1.000
T3C1.016
T2C1.118
T1C5.500
%
G90
M71
T1
X19656Y104832
X15678Y34398
T2
X115062Y115362
X118872Y115362
X122682Y115362
T3
X52887Y113011
X46385Y113011
X52887Y117533
X81752Y116879
X75249Y112358
X81752Y112358
X75249Y116879
X46385Y117533
X38442Y104130
X30822Y104130
T4
X49078Y46968
X49096Y49508
X49060Y44428
X48848Y13949
X48954Y29188
X48936Y26648
X48919Y24109
X48901Y21569
X48883Y19029
X48865Y16489
X48972Y31728
X76787Y13754
X76805Y16294
X76822Y18834
X76840Y21374
X76858Y23913
X76876Y26453
X76893Y28993
X76911Y31533
X76929Y34073
X76947Y36613
X76964Y39153
X76982Y41693
X77000Y44233
X77017Y46773
X67700Y90801
X65160Y90801
X62620Y90801
X60080Y90801
X48989Y34268
X49007Y36808
X49025Y39348
X49043Y41888
X77035Y49313
T5
X92998Y11700
X22364Y20358
X24904Y20358
X28682Y16380
X31222Y16380
X102860Y20358
X105400Y20358
X86012Y53586
X88552Y53586
X104498Y46098
X107038Y46098
X34766Y11700
X37306Y11700
X77086Y170820
X90458Y11700
X47870Y5850
X50410Y5850
X63349Y63038
X63349Y68118
X78697Y144655
X83777Y144655
X43440Y144259
X48520Y144259
X74546Y170820
X103486Y92028
X105782Y102557
X103644Y101185
X92957Y94324
X90820Y92952
X101507Y99813
X99370Y98441
X95095Y95696
X97232Y97068
X94936Y86540
X97074Y87912
X99211Y89284
X101349Y90656
X105624Y93401
X107761Y94773
X109899Y96145
X41552Y8190
X44092Y8190
X49508Y171054
X52048Y171054
X83672Y8424
X86212Y8424
X37574Y53586
X40114Y53586
X23300Y46098
X66690Y131040
X60606Y131040
X53820Y76752
X73710Y76752
X25840Y46098
X96776Y15210
X99316Y15210
X111852Y96642
X88920Y92430
X75482Y5616
X78022Y5616
T6
X61948Y74880
X65348Y74880
T7
X51500Y54500
X100000Y83500
X71806Y72365
X96393Y89967
X79350Y106731
X61747Y88290
X93878Y102819
X88849Y70688
X107290Y50013
X74041Y73203
X90805Y15367
X89967Y24867
X52248Y7823
X37160Y34646
X89408Y56159
X40000Y52000
M30